<svg width="61" height="61" viewBox="0 0 61 61" fill="none" xmlns="http://www.w3.org/2000/svg">
<path d="M30.4316 57.8084C47.4316 57.8084 52.9316 40.9659 52.9316 32.8084C52.8567 28.2512 51.8683 23.7553 50.0248 19.587C48.1813 15.4186 45.5202 11.6625 42.1991 8.54091C39.136 5.21964 34.9349 3.1731 30.4316 2.80841C25.9282 3.1731 21.7272 5.21964 18.6641 8.54091C15.343 11.6625 12.6819 15.4186 10.8384 19.587C8.99491 23.7553 8.00646 28.2512 7.93158 32.8084C7.93158 40.9659 13.4316 57.8084 30.4316 57.8084ZM30.4041 7.80841C36.5416 7.89841 47.9316 18.7909 47.9316 32.8084C47.9316 39.3334 43.6541 52.8084 30.4316 52.8084C17.2091 52.8084 12.9316 39.3334 12.9316 32.8084C12.9316 18.7609 24.3291 7.94091 30.4041 7.80841ZM19.9616 41.5284C19.7917 41.2415 19.681 40.9234 19.6359 40.593C19.5908 40.2626 19.6123 39.9266 19.699 39.6046C19.7858 39.2826 19.9361 38.9812 20.141 38.7182C20.346 38.4552 20.6015 38.2358 20.8926 38.0731C21.1836 37.9103 21.5043 37.8074 21.8357 37.7704C22.1671 37.7334 22.5025 37.7631 22.8223 37.8577C23.142 37.9523 23.4396 38.1099 23.6975 38.3213C23.9554 38.5327 24.1685 38.7935 24.3241 39.0884C24.8827 40.2253 25.7541 41.1791 26.836 41.8381C27.9178 42.497 29.1651 42.8336 30.4316 42.8084C31.0946 42.8084 31.7305 43.0718 32.1993 43.5406C32.6682 44.0095 32.9316 44.6454 32.9316 45.3084C32.9316 45.9715 32.6682 46.6073 32.1993 47.0762C31.7305 47.545 31.0946 47.8084 30.4316 47.8084C28.2759 47.8344 26.1554 47.2609 24.3067 46.152C22.4579 45.0431 20.9536 43.4424 19.9616 41.5284Z" fill="white"/>
</svg>
